<?xml version="1.0" encoding="UTF-8"?>
<svg id="Layer_1" data-name="Layer 1" xmlns="http://www.w3.org/2000/svg" xmlns:xlink="http://www.w3.org/1999/xlink" viewBox="0 0 566.15 269.45">
  <defs>
    <style>
      .cls-1 {
        fill: url(#linear-gradient);
      }
    </style>
    <linearGradient id="linear-gradient" x1="0" y1="134.72" x2="566.15" y2="134.72" gradientUnits="userSpaceOnUse">
      <stop offset="0" stop-color="#0f2027"/>
      <stop offset=".48" stop-color="#203a43"/>
      <stop offset=".59" stop-color="#223f4a"/>
      <stop offset="1" stop-color="#2c5364"/>
    </linearGradient>
  </defs>
  <path class="cls-1" d="M0,1.03H48.26V13.33H0V1.03ZM17.64,9.16h12.99V100.42h-12.99V9.16Z"/>
  <path class="cls-1" d="M57.83,1.03h12.99V100.42h-12.99V1.03Zm6.77,0h35.89V13.33h-35.89V1.03Zm0,43.89h32.47v12.3h-32.47v-12.3Zm0,43.2h35.89v12.3h-35.89v-12.3Z"/>
  <path class="cls-1" d="M121.41,98.44c-3.46-2-6.11-4.91-7.93-8.72-1.82-3.8-2.73-8.37-2.73-13.71V25.5c0-5.38,.91-9.97,2.73-13.77,1.82-3.8,4.45-6.71,7.9-8.72,3.44-2,7.6-3.01,12.48-3.01s9.05,1,12.51,3.01c3.46,2.01,6.09,4.91,7.9,8.72,1.8,3.81,2.7,8.37,2.7,13.71v4.24h-13.12v-4.24c0-2.69-.39-4.99-1.16-6.9-.78-1.91-1.91-3.37-3.42-4.38-1.5-1-3.3-1.5-5.4-1.5s-3.89,.5-5.37,1.5c-1.48,1-2.62,2.46-3.42,4.38-.8,1.91-1.2,4.24-1.2,6.97v50.52c0,2.69,.4,4.99,1.2,6.9,.8,1.91,1.94,3.37,3.42,4.38,1.48,1,3.27,1.5,5.37,1.5s3.9-.5,5.4-1.5c1.5-1,2.64-2.46,3.42-4.38,.77-1.91,1.16-4.21,1.16-6.9v-4.24h13.12v4.24c0,5.33-.9,9.9-2.7,13.71-1.8,3.81-4.43,6.71-7.9,8.72-3.46,2-7.63,3.01-12.51,3.01s-8.98-1-12.44-3.01Z"/>
  <path class="cls-1" d="M167.89,1.03h13.06V100.42h-13.06V1.03Zm8.68,44.3h30.49v12.3h-30.49v-12.3ZM200.7,1.03h12.99V100.42h-12.99V1.03Z"/>
  <path class="cls-1" d="M227.36,1.03h11.35l27.21,76.22-2.12,1.78V1.03h12.37V100.35h-11.48l-27.07-73.83,2.12-1.78V100.35h-12.37V1.03Z"/>
  <path class="cls-1" d="M301.19,98.51c-3.69-1.96-6.51-4.81-8.44-8.54-1.94-3.74-2.91-8.23-2.91-13.47V24.95c0-5.29,.97-9.8,2.91-13.54,1.94-3.74,4.75-6.57,8.44-8.51,3.69-1.94,8.13-2.91,13.33-2.91s9.64,.97,13.33,2.91c3.69,1.94,6.5,4.77,8.44,8.51,1.94,3.74,2.91,8.25,2.91,13.54v51.54c0,5.24-.97,9.73-2.91,13.47-1.94,3.74-4.75,6.59-8.44,8.54s-8.13,2.94-13.33,2.94-9.64-.98-13.33-2.94Zm19.65-11.11c1.75-.93,3.09-2.29,4-4.07,.91-1.78,1.37-3.92,1.37-6.43V24.54c0-2.51-.46-4.65-1.37-6.43-.91-1.78-2.25-3.13-4-4.07-1.75-.93-3.86-1.4-6.32-1.4s-4.57,.47-6.32,1.4c-1.75,.93-3.09,2.29-4,4.07-.91,1.78-1.37,3.92-1.37,6.43v52.36c0,2.51,.46,4.65,1.37,6.43,.91,1.78,2.24,3.13,4,4.07,1.75,.93,3.86,1.4,6.32,1.4s4.57-.47,6.32-1.4Z"/>
  <path class="cls-1" d="M351.5,1.03h12.99V100.42h-12.99V1.03Zm6.97,87.09h34.32v12.3h-34.32v-12.3Z"/>
  <path class="cls-1" d="M411.66,98.51c-3.69-1.96-6.51-4.81-8.44-8.54-1.94-3.74-2.91-8.23-2.91-13.47V24.95c0-5.29,.97-9.8,2.91-13.54,1.94-3.74,4.75-6.57,8.44-8.51,3.69-1.94,8.13-2.91,13.33-2.91s9.64,.97,13.33,2.91c3.69,1.94,6.5,4.77,8.44,8.51,1.94,3.74,2.91,8.25,2.91,13.54v51.54c0,5.24-.97,9.73-2.91,13.47-1.94,3.74-4.75,6.59-8.44,8.54s-8.13,2.94-13.33,2.94-9.64-.98-13.33-2.94Zm19.65-11.11c1.75-.93,3.09-2.29,4-4.07,.91-1.78,1.37-3.92,1.37-6.43V24.54c0-2.51-.46-4.65-1.37-6.43-.91-1.78-2.25-3.13-4-4.07-1.75-.93-3.86-1.4-6.32-1.4s-4.57,.47-6.32,1.4c-1.75,.93-3.09,2.29-4,4.07-.91,1.78-1.37,3.92-1.37,6.43v52.36c0,2.51,.46,4.65,1.37,6.43,.91,1.78,2.24,3.13,4,4.07,1.75,.93,3.86,1.4,6.32,1.4s4.57-.47,6.32-1.4Z"/>
  <path class="cls-1" d="M508.73,46.89v29.05c0,5.38-.94,9.97-2.8,13.77-1.87,3.81-4.59,6.71-8.17,8.72s-7.87,3.01-12.88,3.01-9.48-.95-13.12-2.84c-3.65-1.89-6.42-4.64-8.31-8.24-1.89-3.6-2.84-7.93-2.84-12.99V25.5c0-5.38,.93-9.97,2.8-13.77,1.87-3.8,4.59-6.71,8.17-8.72,3.58-2,7.87-3.01,12.89-3.01s9.14,.97,12.65,2.91c3.51,1.94,6.19,4.76,8.03,8.48,1.85,3.71,2.77,8.17,2.77,13.36v4.92h-13.81v-4.92c0-2.55-.38-4.74-1.13-6.56-.75-1.82-1.85-3.2-3.28-4.14-1.44-.93-3.18-1.4-5.23-1.4-2.28,0-4.24,.5-5.88,1.5-1.64,1-2.88,2.46-3.73,4.38s-1.26,4.24-1.26,6.97v51.88c0,2.42,.44,4.48,1.33,6.19s2.18,3.01,3.86,3.9c1.69,.89,3.71,1.33,6.08,1.33s4.23-.49,5.84-1.47c1.62-.98,2.86-2.42,3.73-4.31,.87-1.89,1.3-4.18,1.3-6.87v-16.95h-11.21v-12.3h24.2Z"/>
  <path class="cls-1" d="M547.01,58.86v41.56h-12.99V58.86L514.2,1.03h13.19l13.12,42.79,12.44-42.79h13.19l-19.14,57.83Z"/>
  <path class="cls-1" d="M159.93,169.03h9.43l12.44,76.77,8.61-76.77h12.99l-13.67,99.39h-14.15l-10.53-67.47-11.35,67.47h-14.15l-13.67-99.39h12.99l8.61,76.77,12.44-76.77Z"/>
  <path class="cls-1" d="M220.9,266.51c-3.69-1.96-6.51-4.81-8.44-8.54-1.94-3.74-2.91-8.23-2.91-13.47v-51.54c0-5.29,.97-9.8,2.91-13.54,1.94-3.74,4.75-6.57,8.44-8.51,3.69-1.94,8.13-2.91,13.33-2.91s9.64,.97,13.33,2.91c3.69,1.94,6.5,4.77,8.44,8.51,1.94,3.74,2.91,8.25,2.91,13.54v51.54c0,5.24-.97,9.73-2.91,13.47-1.94,3.74-4.75,6.59-8.44,8.54s-8.13,2.94-13.33,2.94-9.64-.98-13.33-2.94Zm19.65-11.11c1.75-.93,3.09-2.29,4-4.07,.91-1.78,1.37-3.92,1.37-6.43v-52.36c0-2.51-.46-4.65-1.37-6.43-.91-1.78-2.25-3.13-4-4.07-1.75-.93-3.86-1.4-6.32-1.4s-4.57,.47-6.32,1.4c-1.75,.93-3.09,2.29-4,4.07-.91,1.78-1.37,3.92-1.37,6.43v52.36c0,2.51,.46,4.65,1.37,6.43,.91,1.78,2.24,3.13,4,4.07,1.75,.93,3.86,1.4,6.32,1.4s4.57-.47,6.32-1.4Z"/>
  <path class="cls-1" d="M271.22,168.96h12.99v99.46h-12.99v-99.46Zm6.08,45.12h18.32c2.32,0,4.32-.43,5.98-1.3,1.66-.87,2.93-2.12,3.79-3.76,.87-1.64,1.3-3.62,1.3-5.95v-10.12c0-2.46-.43-4.57-1.3-6.32-.87-1.75-2.13-3.09-3.79-4-1.66-.91-3.66-1.37-5.98-1.37h-18.32v-12.3h17.16c5.29,0,9.82,.88,13.6,2.63,3.78,1.75,6.67,4.33,8.65,7.72,1.98,3.4,2.97,7.46,2.97,12.2v11.62c0,4.88-.99,9.06-2.97,12.54s-4.87,6.14-8.65,7.96c-3.78,1.82-8.32,2.73-13.6,2.73h-17.16v-12.3Zm17.09,9.23l12.24-3.14,15.86,48.26h-14.22l-13.88-45.12Z"/>
  <path class="cls-1" d="M334.45,169.03h12.99v99.39h-12.99v-99.39Zm6.97,87.09h34.32v12.3h-34.32v-12.3Z"/>
  <path class="cls-1" d="M385.99,169.03h12.99v99.39h-12.99v-99.39Zm8.27,87.09h18.12c2.37,0,4.19-.71,5.47-2.12,1.28-1.41,1.91-3.42,1.91-6.02v-58.52c0-2.6-.64-4.6-1.91-6.02-1.28-1.41-3.1-2.12-5.47-2.12h-18.12v-12.3h17.71c4.42,0,8.18,.81,11.28,2.43,3.1,1.62,5.46,3.98,7.08,7.08,1.62,3.1,2.43,6.86,2.43,11.28v57.83c0,4.38-.82,8.12-2.46,11.25-1.64,3.12-4.01,5.49-7.11,7.11-3.1,1.62-6.86,2.43-11.28,2.43h-17.64v-12.3Z"/>
</svg>